<svg xmlns="http://www.w3.org/2000/svg" class="markmap mm-y7i07m-2" style="width: 100%; height: 100%;"><style>.markmap{--markmap-max-width: 9999px;--markmap-a-color: #0097e6;--markmap-a-hover-color: #00a8ff;--markmap-code-bg: #f0f0f0;--markmap-code-color: #555;--markmap-highlight-bg: #ffeaa7;--markmap-table-border: 1px solid currentColor;--markmap-font: 300 16px/20px sans-serif;--markmap-circle-open-bg: #fff;--markmap-text-color: #333;--markmap-highlight-node-bg: #ff02;font:var(--markmap-font);color:var(--markmap-text-color)}.markmap-link{fill:none}.markmap-node&gt;circle{cursor:pointer}.markmap-foreign{display:inline-block}.markmap-foreign p{margin:0}.markmap-foreign a{color:var(--markmap-a-color)}.markmap-foreign a:hover{color:var(--markmap-a-hover-color)}.markmap-foreign code{padding:.25em;font-size:calc(1em - 2px);color:var(--markmap-code-color);background-color:var(--markmap-code-bg);border-radius:2px}.markmap-foreign pre{margin:0}.markmap-foreign pre&gt;code{display:block}.markmap-foreign del{text-decoration:line-through}.markmap-foreign em{font-style:italic}.markmap-foreign strong{font-weight:700}.markmap-foreign mark{background:var(--markmap-highlight-bg)}.markmap-foreign table,.markmap-foreign th,.markmap-foreign td{border-collapse:collapse;border:var(--markmap-table-border)}.markmap-foreign img{display:inline-block}.markmap-foreign svg{fill:currentColor}.markmap-foreign&gt;div{width:var(--markmap-max-width);text-align:left}.markmap-foreign&gt;div&gt;div{display:inline-block}.markmap-highlight rect{fill:var(--markmap-highlight-node-bg)}.markmap-dark .markmap{--markmap-code-bg: #1a1b26;--markmap-code-color: #ddd;--markmap-circle-open-bg: #444;--markmap-text-color: #eee}</style><g transform="translate(20,303.78035071942446) scale(0.6834532374100719)"><path class="markmap-link" data-depth="3" data-path="1.2.3" d="M298,-115.281C338,-115.281,338,-142.344,378,-142.344" stroke-width="1.375" stroke="rgb(44, 160, 44)"/><path class="markmap-link" data-depth="3" data-path="1.2.4" d="M298,-115.281C338,-115.281,338,-114.969,378,-114.969" stroke-width="1.375" stroke="rgb(214, 39, 40)"/><path class="markmap-link" data-depth="3" data-path="1.2.5" d="M298,-115.281C338,-115.281,338,-87.594,378,-87.594" stroke-width="1.375" stroke="rgb(148, 103, 189)"/><path class="markmap-link" data-depth="3" data-path="1.6.7" d="M350,-10.344C390,-10.344,390,-56.219,430,-56.219" stroke-width="1.375" stroke="rgb(227, 119, 194)"/><path class="markmap-link" data-depth="3" data-path="1.6.8" d="M350,-10.344C390,-10.344,390,35.156,430,35.156" stroke-width="1.375" stroke="rgb(127, 127, 127)"/><path class="markmap-link" data-depth="3" data-path="1.9.10" d="M318,110.281C358,110.281,358,68.531,398,68.531" stroke-width="1.375" stroke="rgb(23, 190, 207)"/><path class="markmap-link" data-depth="3" data-path="1.9.11" d="M318,110.281C358,110.281,358,96.906,398,96.906" stroke-width="1.375" stroke="rgb(31, 119, 180)"/><path class="markmap-link" data-depth="3" data-path="1.9.12" d="M318,110.281C358,110.281,358,125.281,398,125.281" stroke-width="1.375" stroke="rgb(255, 127, 14)"/><path class="markmap-link" data-depth="3" data-path="1.9.13" d="M318,110.281C358,110.281,358,153.656,398,153.656" stroke-width="1.375" stroke="rgb(44, 160, 44)"/><path class="markmap-link" data-depth="2" data-path="1.2" d="M109,11.25C149,11.25,149,-115.281,189,-115.281" stroke-width="1.75" stroke="rgb(255, 127, 14)"/><path class="markmap-link" data-depth="2" data-path="1.6" d="M109,11.25C149,11.25,149,-10.344,189,-10.344" stroke-width="1.75" stroke="rgb(140, 86, 75)"/><path class="markmap-link" data-depth="2" data-path="1.9" d="M109,11.25C149,11.25,149,110.281,189,110.281" stroke-width="1.75" stroke="rgb(188, 189, 34)"/><path class="markmap-link" data-depth="2" data-path="1.14" d="M109,11.25C149,11.25,149,137.031,189,137.031" stroke-width="1.75" stroke="rgb(214, 39, 40)"/><g class="markmap-highlight"/><g data-depth="3" data-path="1.2.3" class="markmap-node" transform="translate(378, -164.03125)"><line stroke="#2ca02c" stroke-width="1.375" x1="-1" x2="417" y1="21.6875" y2="21.6875"/><foreignObject class="markmap-foreign" x="8" y="0" style="opacity: 1;" width="399" height="21"><div xmlns="http://www.w3.org/1999/xhtml"><div xmlns="http://www.w3.org/1999/xhtml"><svg xmlns="http://www.w3.org/2000/svg" width="16" height="16" viewBox="0 -3 24 24"><path d="M19 3H5a2 2 0 0 0-2 2v14a2 2 0 0 0 2 2h14a2 2 0 0 0 2-2V5a2 2 0 0 0-2-2m-9 14-5-5 1.41-1.41L10 14.17l7.59-7.59L19 8z"/></svg> Centralizar eventos de endpoint en un SIEM (Wazuh)</div></div></foreignObject></g><g data-depth="3" data-path="1.2.4" class="markmap-node" transform="translate(378, -136.65625)"><line stroke="#d62728" stroke-width="1.375" x1="-1" x2="493" y1="21.6875" y2="21.6875"/><foreignObject class="markmap-foreign" x="8" y="0" style="opacity: 1;" width="475" height="21"><div xmlns="http://www.w3.org/1999/xhtml"><div xmlns="http://www.w3.org/1999/xhtml"><svg xmlns="http://www.w3.org/2000/svg" width="16" height="16" viewBox="0 -3 24 24"><path d="M19 3H5a2 2 0 0 0-2 2v14a2 2 0 0 0 2 2h14a2 2 0 0 0 2-2V5a2 2 0 0 0-2-2m-9 14-5-5 1.41-1.41L10 14.17l7.59-7.59L19 8z"/></svg> Detectar técnicas MITRE ATT&amp;CK (T1059.001, T1003.001, etc.)</div></div></foreignObject></g><g data-depth="3" data-path="1.2.5" class="markmap-node" transform="translate(378, -109.28125)"><line stroke="#9467bd" stroke-width="1.375" x1="-1" x2="327" y1="21.6875" y2="21.6875"/><foreignObject class="markmap-foreign" x="8" y="0" style="opacity: 1;" width="309" height="21"><div xmlns="http://www.w3.org/1999/xhtml"><div xmlns="http://www.w3.org/1999/xhtml"><svg xmlns="http://www.w3.org/2000/svg" width="16" height="16" viewBox="0 -3 24 24"><path d="M19 3H5a2 2 0 0 0-2 2v14a2 2 0 0 0 2 2h14a2 2 0 0 0 2-2V5a2 2 0 0 0-2-2m-9 14-5-5 1.41-1.41L10 14.17l7.59-7.59L19 8z"/></svg> Documentar casos de uso con evidencia</div></div></foreignObject></g><g data-depth="2" data-path="1.2" class="markmap-node" transform="translate(189, -136.15625)"><line stroke="#ff7f0e" stroke-width="1.75" x1="-1" x2="111" y1="20.875" y2="20.875"/><circle stroke-width="1.5" r="6" stroke="#ff7f0e" fill="var(--markmap-circle-open-bg)" cx="109" cy="20.875"/><foreignObject class="markmap-foreign" x="8" y="0" style="opacity: 1;" width="93" height="20"><div xmlns="http://www.w3.org/1999/xhtml"><div xmlns="http://www.w3.org/1999/xhtml">🎯 Objetivos</div></div></foreignObject></g><g data-depth="3" data-path="1.6.7" class="markmap-node" transform="translate(430, -76.90625)"><line stroke="#e377c2" stroke-width="1.375" x1="-1" x2="2" y1="20.6875" y2="20.6875"/><foreignObject class="markmap-foreign" x="8" y="0" style="opacity: 1;" width="0" height="20"><div xmlns="http://www.w3.org/1999/xhtml"><div xmlns="http://www.w3.org/1999/xhtml"><img src="docs/network-topology.png" alt="Topología" /></div></div></foreignObject></g><g data-depth="3" data-path="1.6.8" class="markmap-node" transform="translate(430, -50.53125)"><line stroke="#7f7f7f" stroke-width="1.375" x1="-1" x2="684" y1="85.6875" y2="85.6875"/><foreignObject class="markmap-foreign" x="8" y="0" style="opacity: 1;" width="666" height="85"><div xmlns="http://www.w3.org/1999/xhtml"><div xmlns="http://www.w3.org/1999/xhtml"><table data-lines="13,18">
<thead data-lines="13,14">
<tr data-lines="13,14">
<th>Segmento</th>
<th>Subred</th>
<th>Rol</th>
<th>Máquina</th>
</tr>
</thead>
<tbody data-lines="15,18">
<tr data-lines="15,16">
<td>Red objetivo</td>
<td>192.168.10.0/24</td>
<td>Endpoint víctima + sensor</td>
<td>Windows 11 (Sysmon + Wazuh Agent)</td>
</tr>
<tr data-lines="16,17">
<td>Monitoreo</td>
<td>192.168.20.0/24</td>
<td>SIEM central</td>
<td>Ubuntu Server + Wazuh (Docker)</td>
</tr>
<tr data-lines="17,18">
<td>Atacante</td>
<td>192.168.30.0/24</td>
<td>Red team simulado</td>
<td>Kali Linux</td>
</tr>
</tbody>
</table></div></div></foreignObject></g><g data-depth="2" data-path="1.6" class="markmap-node" transform="translate(189, -31.21875)"><line stroke="#8c564b" stroke-width="1.75" x1="-1" x2="163" y1="20.875" y2="20.875"/><circle stroke-width="1.5" r="6" stroke="#8c564b" fill="var(--markmap-circle-open-bg)" cx="161" cy="20.875"/><foreignObject class="markmap-foreign" x="8" y="0" style="opacity: 1;" width="145" height="20"><div xmlns="http://www.w3.org/1999/xhtml"><div xmlns="http://www.w3.org/1999/xhtml">🗺️ Topología de red</div></div></foreignObject></g><g data-depth="3" data-path="1.9.10" class="markmap-node" transform="translate(398, 45.84375)"><line stroke="#17becf" stroke-width="1.375" x1="-1" x2="406" y1="22.6875" y2="22.6875"/><foreignObject class="markmap-foreign" x="8" y="0" style="opacity: 1;" width="388" height="22"><div xmlns="http://www.w3.org/1999/xhtml"><div xmlns="http://www.w3.org/1999/xhtml">1. <code>cd docker &amp;&amp; docker compose up -d</code> (despliega Wazuh)</div></div></foreignObject></g><g data-depth="3" data-path="1.9.11" class="markmap-node" transform="translate(398, 74.21875)"><line stroke="#1f77b4" stroke-width="1.375" x1="-1" x2="367" y1="22.6875" y2="22.6875"/><foreignObject class="markmap-foreign" x="8" y="0" style="opacity: 1;" width="349" height="22"><div xmlns="http://www.w3.org/1999/xhtml"><div xmlns="http://www.w3.org/1999/xhtml">2. En Windows: <code>.\agents\sysmon\deploy-sysmon.ps1</code></div></div></foreignObject></g><g data-depth="3" data-path="1.9.12" class="markmap-node" transform="translate(398, 102.59375)"><line stroke="#ff7f0e" stroke-width="1.375" x1="-1" x2="390" y1="22.6875" y2="22.6875"/><foreignObject class="markmap-foreign" x="8" y="0" style="opacity: 1;" width="372" height="22"><div xmlns="http://www.w3.org/1999/xhtml"><div xmlns="http://www.w3.org/1999/xhtml">3. Ejecuta <code>simulation/atomic-tests.ps1</code> y verifica alertas</div></div></foreignObject></g><g data-depth="3" data-path="1.9.13" class="markmap-node" transform="translate(398, 130.96875)"><line stroke="#2ca02c" stroke-width="1.375" x1="-1" x2="445" y1="22.6875" y2="22.6875"/><foreignObject class="markmap-foreign" x="8" y="0" style="opacity: 1;" width="427" height="22"><div xmlns="http://www.w3.org/1999/xhtml"><div xmlns="http://www.w3.org/1999/xhtml">4. Consulta <code>docs/detection-use-cases.md</code> para casos resueltos</div></div></foreignObject></g><g data-depth="2" data-path="1.9" class="markmap-node" transform="translate(189, 89.40625)"><line stroke="#bcbd22" stroke-width="1.75" x1="-1" x2="131" y1="20.875" y2="20.875"/><circle stroke-width="1.5" r="6" stroke="#bcbd22" fill="var(--markmap-circle-open-bg)" cx="129" cy="20.875"/><foreignObject class="markmap-foreign" x="8" y="0" style="opacity: 1;" width="113" height="20"><div xmlns="http://www.w3.org/1999/xhtml"><div xmlns="http://www.w3.org/1999/xhtml">🚀 Inicio rápido</div></div></foreignObject></g><g data-depth="2" data-path="1.14" class="markmap-node" transform="translate(189, 116.15625)"><line stroke="#d62728" stroke-width="1.75" x1="-1" x2="119" y1="20.875" y2="20.875"/><foreignObject class="markmap-foreign" x="8" y="0" style="opacity: 1;" width="101" height="20"><div xmlns="http://www.w3.org/1999/xhtml"><div xmlns="http://www.w3.org/1999/xhtml">📋 Requisitos</div></div></foreignObject></g><g data-depth="1" data-path="1" class="markmap-node" transform="translate(0, -10)"><line stroke="#1f77b4" stroke-width="2.5" x1="-1" x2="111" y1="21.25" y2="21.25"/><circle stroke-width="1.5" r="6" stroke="#1f77b4" fill="var(--markmap-circle-open-bg)" cx="109" cy="21.25"/><foreignObject class="markmap-foreign" x="8" y="0" style="opacity: 1;" width="93" height="20"><div xmlns="http://www.w3.org/1999/xhtml"><div xmlns="http://www.w3.org/1999/xhtml">🛡️ SOC-Lab</div></div></foreignObject></g></g></svg>